<svg xmlns="http://www.w3.org/2000/svg" viewBox="0 0 1600 1000" role="img" aria-labelledby="title desc">
  <title id="title">Neutra abstract project artwork</title>
  <desc id="desc">A playful community hub with connected people, moderation shields, analytics, and music symbols.</desc>
  <defs>
    <linearGradient id="bg" x1="80" y1="80" x2="1510" y2="940" gradientUnits="userSpaceOnUse">
      <stop stop-color="#c8c7ff"/>
      <stop offset="0.52" stop-color="#8fc9ff"/>
      <stop offset="1" stop-color="#7dd9cb"/>
    </linearGradient>
    <linearGradient id="panel" x1="440" y1="225" x2="1160" y2="790" gradientUnits="userSpaceOnUse">
      <stop stop-color="#29294a"/>
      <stop offset="1" stop-color="#17172f"/>
    </linearGradient>
    <linearGradient id="orb" x1="620" y1="350" x2="970" y2="675" gradientUnits="userSpaceOnUse">
      <stop stop-color="#fff6ba"/>
      <stop offset="0.52" stop-color="#ffb4cf"/>
      <stop offset="1" stop-color="#a88cff"/>
    </linearGradient>
    <filter id="soft" x="-40%" y="-40%" width="180%" height="180%">
      <feGaussianBlur stdDeviation="18"/>
    </filter>
    <pattern id="dots" width="50" height="50" patternUnits="userSpaceOnUse">
      <circle cx="4" cy="4" r="3" fill="#ffffff" opacity="0.24"/>
    </pattern>
  </defs>

  <rect width="1600" height="1000" fill="url(#bg)"/>
  <rect width="1600" height="1000" fill="url(#dots)"/>
  <circle cx="214" cy="180" r="150" fill="#fff4c8" opacity="0.55" filter="url(#soft)"/>
  <circle cx="1432" cy="866" r="210" fill="#ff9fc3" opacity="0.36" filter="url(#soft)"/>

  <g opacity="0.65" fill="#fff">
    <path d="M123 764c50-43 112-38 142 9 34 52 101 55 153 8" fill="none" stroke="#fff" stroke-width="14" stroke-linecap="round"/>
    <circle cx="1290" cy="132" r="13"/>
    <circle cx="1348" cy="180" r="8"/>
    <path d="M138 244h78M177 205v78" stroke="#fff" stroke-width="12" stroke-linecap="round"/>
  </g>

  <g>
    <rect x="354" y="170" width="892" height="670" rx="74" fill="#f9f8ff" opacity="0.94"/>
    <rect x="408" y="223" width="784" height="564" rx="54" fill="url(#panel)"/>
  </g>

  <g opacity="0.36" stroke="#7777ab" stroke-width="3">
    <path d="M466 318h668M466 410h668M466 502h668M466 594h668M466 686h668"/>
    <path d="M562 276v450M670 276v450M778 276v450M886 276v450M994 276v450M1102 276v450"/>
  </g>

  <g fill="none" stroke-linecap="round">
    <path d="M622 443C548 382 494 339 514 287" stroke="#95e8db" stroke-width="10"/>
    <path d="M984 420c89-60 130-91 124-144" stroke="#ffd477" stroke-width="10"/>
    <path d="M1001 607c106 33 140 67 126 116" stroke="#ff9bbb" stroke-width="10"/>
    <path d="M594 615c-93 40-136 70-129 124" stroke="#b29bff" stroke-width="10"/>
  </g>

  <g>
    <circle cx="800" cy="505" r="176" fill="url(#orb)"/>
    <circle cx="800" cy="505" r="126" fill="#fff" opacity="0.92"/>
  </g>
  <g fill="#262640">
    <circle cx="744" cy="487" r="17"/>
    <circle cx="856" cy="487" r="17"/>
    <path d="M740 554c32 34 88 34 120 0" fill="none" stroke="#262640" stroke-width="14" stroke-linecap="round"/>
  </g>
  <g fill="#ff87ae" opacity="0.72">
    <ellipse cx="699" cy="530" rx="30" ry="16"/>
    <ellipse cx="901" cy="530" rx="30" ry="16"/>
  </g>

  <g>
    <g transform="translate(476 248)">
      <circle r="69" fill="#ecfff9"/>
      <circle cy="-16" r="22" fill="#3c5871"/>
      <path d="M-41 46c5-40 77-40 82 0" fill="#5fd2bd"/>
    </g>
    <g transform="translate(1111 245)">
      <circle r="69" fill="#fff7dc"/>
      <circle cy="-16" r="22" fill="#664d5d"/>
      <path d="M-41 46c5-40 77-40 82 0" fill="#f7bf55"/>
    </g>
    <g transform="translate(1135 745)">
      <circle r="69" fill="#fff0f5"/>
      <circle cy="-16" r="22" fill="#543b55"/>
      <path d="M-41 46c5-40 77-40 82 0" fill="#ff87ae"/>
    </g>
    <g transform="translate(456 758)">
      <circle r="69" fill="#f4f0ff"/>
      <circle cy="-16" r="22" fill="#45416a"/>
      <path d="M-41 46c5-40 77-40 82 0" fill="#9b89f5"/>
    </g>
  </g>

  <g>
    <g transform="translate(250 410)">
      <rect x="-94" y="-84" width="188" height="168" rx="42" fill="#fff" opacity="0.94"/>
      <path d="M0-47 49-25v37c0 42-31 69-49 77-18-8-49-35-49-77v-37z" fill="#6fd5c3"/>
      <path d="m-18 9 14 15 29-34" fill="none" stroke="#fff" stroke-width="12" stroke-linecap="round" stroke-linejoin="round"/>
    </g>
    <g transform="translate(1360 435)">
      <rect x="-104" y="-84" width="208" height="168" rx="42" fill="#fff" opacity="0.94"/>
      <rect x="-61" y="12" width="28" height="43" rx="9" fill="#a995ff"/>
      <rect x="-14" y="-24" width="28" height="79" rx="9" fill="#ff9abb"/>
      <rect x="33" y="-52" width="28" height="107" rx="9" fill="#ffd06b"/>
    </g>
    <g transform="translate(1328 700)">
      <rect x="-105" y="-84" width="210" height="168" rx="42" fill="#fff" opacity="0.94"/>
      <path d="M-22-42v87c0 21-17 38-38 38s-38-17-38-38 17-38 38-38c7 0 13 2 18 5v-77l78-16v73c0 21-17 38-38 38s-38-17-38-38 17-38 38-38c7 0 13 2 18 5" fill="#ff87ae" transform="scale(.65) translate(25 4)"/>
    </g>
  </g>

  <g fill="#fff" opacity="0.9">
    <path d="m225 126 13 29 31 4-23 21 6 31-27-15-28 15 7-31-23-21 31-4z"/>
    <path d="m1422 271 9 19 21 3-15 14 4 21-19-10-19 10 4-21-15-14 21-3z"/>
    <circle cx="136" cy="588" r="12"/>
    <circle cx="1481" cy="566" r="17"/>
  </g>
</svg>
